<svg width="15" height="14" viewBox="0 0 15 14" fill="none" xmlns="http://www.w3.org/2000/svg">
<g clip-path="url(#clip0_6_239)">
<path d="M7.31006 5.4565L6.52781 3.89112C6.33356 3.5035 5.99668 2.94613 5.51981 2.4955C5.05081 2.05188 4.48906 1.75 3.81006 1.75C2.34356 1.75 1.18506 2.91025 1.18506 4.305C1.18506 5.36462 1.66981 6.11275 2.81956 7.25375C3.11443 7.546 3.45043 7.86188 3.82231 8.21012C4.79181 9.12012 5.99756 10.2524 7.31006 11.7661C8.62256 10.2524 9.82831 9.12012 10.7978 8.21012C11.1697 7.86188 11.5066 7.54513 11.8006 7.25375C12.9503 6.11275 13.4351 5.36462 13.4351 4.305C13.4351 2.91025 12.2766 1.75 10.8101 1.75C10.1302 1.75 9.56931 2.05188 9.10031 2.4955C8.62343 2.94613 8.28656 3.5035 8.09231 3.89112L7.31006 5.4565ZM7.65306 12.712C7.56777 12.813 7.44228 12.8713 7.31006 12.8713C7.17784 12.8713 7.05235 12.813 6.96706 12.712C5.56618 11.0477 4.29831 9.85775 3.25443 8.87862C1.44756 7.182 0.310059 6.11537 0.310059 4.305C0.310059 2.41062 1.87631 0.875 3.81006 0.875C5.21006 0.875 6.18918 1.79375 6.78856 2.632C7.01606 2.95138 7.18931 3.2585 7.31006 3.5C7.46143 3.19775 7.63577 2.90756 7.83156 2.632C8.43093 1.79288 9.41006 0.875 10.8101 0.875C12.7438 0.875 14.3101 2.41062 14.3101 4.305C14.3101 6.11537 13.1726 7.182 11.3657 8.87862C10.3218 9.85863 9.05393 11.0486 7.65306 12.7111" fill="#B47AFF"/>
</g>
<defs>
<clipPath id="clip0_6_239">
<rect width="14" height="14" fill="white" transform="translate(0.310059)"/>
</clipPath>
</defs>
</svg>
