<svg width="16" height="16" viewBox="0 0 16 16" fill="none" xmlns="http://www.w3.org/2000/svg">
<g clip-path="url(#clip0_6_227)">
<path d="M7.596 7.304C7.84556 7.44688 7.99952 7.71244 7.99952 8C7.99952 8.28757 7.84556 8.55312 7.596 8.696L1.233 12.388C0.713 12.69 0 12.345 0 11.692V4.308C0 3.655 0.713 3.31 1.233 3.612L7.596 7.304Z" fill="#B47AFF"/>
<path d="M15.596 7.304C15.8456 7.44688 15.9995 7.71244 15.9995 8C15.9995 8.28757 15.8456 8.55312 15.596 8.696L9.233 12.388C8.713 12.69 8 12.345 8 11.692V4.308C8 3.655 8.713 3.31 9.233 3.612L15.596 7.304Z" fill="#B47AFF"/>
</g>
<defs>
<clipPath id="clip0_6_227">
<rect width="16" height="16" fill="white"/>
</clipPath>
</defs>
</svg>
