<svg width="15" height="14" viewBox="0 0 15 14" fill="none" xmlns="http://www.w3.org/2000/svg">
<g clip-path="url(#clip0_6_234)">
<path d="M11.16 11.375C11.16 12.3419 10.18 13.125 8.97253 13.125C7.76503 13.125 6.78503 12.3419 6.78503 11.375C6.78503 10.4081 7.76503 9.625 8.97253 9.625C10.18 9.625 11.16 10.4081 11.16 11.375Z" fill="#B47AFF"/>
<path fill-rule="evenodd" clip-rule="evenodd" d="M11.16 2.625V11.375H10.285V2.625H11.16Z" fill="#B47AFF"/>
<path d="M10.285 2.4675C10.2853 2.05056 10.5797 1.69172 10.9885 1.61L13.6135 1.085C13.8705 1.03364 14.1369 1.10014 14.3396 1.26622C14.5423 1.4323 14.6599 1.68047 14.66 1.9425V3.5L10.285 4.375V2.4675Z" fill="#B47AFF"/>
<path fill-rule="evenodd" clip-rule="evenodd" d="M0.660034 10.0625C0.660034 9.82104 0.856071 9.625 1.09753 9.625H4.16003C4.4015 9.625 4.59753 9.82104 4.59753 10.0625C4.59753 10.304 4.4015 10.5 4.16003 10.5H1.09753C0.856071 10.5 0.660034 10.304 0.660034 10.0625ZM0.660034 6.5625C0.660034 6.32104 0.856071 6.125 1.09753 6.125H7.66003C7.9015 6.125 8.09753 6.32104 8.09753 6.5625C8.09753 6.80396 7.9015 7 7.66003 7H1.09753C0.856071 7 0.660034 6.80396 0.660034 6.5625ZM0.660034 3.0625C0.660034 2.82104 0.856071 2.625 1.09753 2.625H7.66003C7.9015 2.625 8.09753 2.82104 8.09753 3.0625C8.09753 3.30396 7.9015 3.5 7.66003 3.5H1.09753C0.856071 3.5 0.660034 3.30396 0.660034 3.0625Z" fill="#B47AFF"/>
</g>
<defs>
<clipPath id="clip0_6_234">
<rect width="14" height="14" fill="white" transform="translate(0.660034)"/>
</clipPath>
</defs>
</svg>
