<svg width="16" height="16" viewBox="0 0 16 16" fill="none" xmlns="http://www.w3.org/2000/svg">
<g clip-path="url(#clip0_6_222)">
<path d="M8.404 8.696C8.15444 8.55312 8.00048 8.28756 8.00048 8C8.00048 7.71243 8.15444 7.44688 8.404 7.304L14.767 3.612C15.287 3.31 16 3.655 16 4.308V11.692C16 12.345 15.287 12.69 14.767 12.388L8.404 8.696Z" fill="#B47AFF"/>
<path d="M0.404 8.696C0.154443 8.55312 0.000482559 8.28756 0.000482559 8C0.000482559 7.71243 0.154443 7.44688 0.404 7.304L6.767 3.612C7.287 3.31 8 3.655 8 4.308V11.692C8 12.345 7.287 12.69 6.767 12.388L0.404 8.696Z" fill="#B47AFF"/>
</g>
<defs>
<clipPath id="clip0_6_222">
<rect width="16" height="16" fill="white" transform="matrix(-1 0 0 -1 16 16)"/>
</clipPath>
</defs>
</svg>
